<?xml version="1.0" encoding="utf-8"?>
<!-- Generator: Adobe Illustrator 27.9.0, SVG Export Plug-In . SVG Version: 6.00 Build 0)  -->
<svg version="1.1" id="Layer_1" xmlns="http://www.w3.org/2000/svg" xmlns:xlink="http://www.w3.org/1999/xlink" x="0px" y="0px"
	 viewBox="0 0 512 512" enable-background="new 0 0 512 512" xml:space="preserve">
<rect fill="#1F2F30" width="512" height="512"/>
<path fill="#FEFEFE" d="M281.2,241.1c17.2-0.9,34.4,2.2,51-5.1c11.5-5.1,24-5.3,35.6-0.4c11.4,4.8,22.5,10.8,33.3,16.9
	c6.7,3.8,6.4,8.6-0.5,11.7c-5,2.2-10.7,4.2-16.1,4.2c-39.2,0.3-78.3,0.2-117.5,0.1c-8,0-13.6-6.1-13.6-14.5
	c0.1-61.9,0.1-123.8,0.2-185.7c0-4.4,0.2-8.9,1-13.1c0.7-3.3,2.2-6.6,3.9-9.6c2.7-4.9,7-5.4,9.9-0.5c5.5,9.2,10.6,18.8,15.5,28.4
	c5.5,10.6,6.8,22,4.5,33.7c-0.6,3-1.4,5.9-2.6,8.7c-3.4,8.4-5,17.1-5,26.2c0.1,32,0,63.9,0,95.9C281,238.9,281.1,239.7,281.2,241.1z
	 M369.3,251.4c-10.6-6.6-26.1-6.8-35.7-0.8C340.2,256.3,361,256.9,369.3,251.4z M270.9,78.1c-5.6,8.6-4.9,30.4,0.9,36.4
	C277.3,102.3,277.3,90.4,270.9,78.1z"/>
<path fill="#FEFEFE" d="M140.3,120.7c2.6,1.5,4.7,2.1,6.1,3.5c7.2,7,14.3,14.2,21.4,21.4c3.5,3.6,3.6,7.6,0.6,10.5
	c-2.7,2.6-7,2.3-10.2-0.8c-7.3-7.2-14.5-14.4-21.6-21.7c-2.1-2.1-3.7-4.9-1.7-7.8C136.2,123.8,138.3,122.5,140.3,120.7z"/>
<path fill="#FEFEFE" d="M274,417.2c0,5.3,0.1,10.7,0,16c-0.1,4.3-2.5,6.8-6.2,7c-4,0.2-7.1-2.2-7.2-6.6c-0.3-10.8-0.2-21.7,0-32.5
	c0.1-4.1,3.8-7.2,7.2-6.7c3.9,0.6,6.2,3,6.2,7.2C274,406.8,274,412,274,417.2z"/>
<path fill="#FEFEFE" d="M104.8,261.5c-5.2,0-10.4,0.1-15.5,0c-4.3-0.1-7.3-2.9-7.4-6.5c-0.1-3.6,2.7-6.8,7-6.9
	c10.7-0.2,21.3-0.3,32,0c4.7,0.1,6.8,2.7,6.7,6.9c-0.1,4.1-2.4,6.3-7.2,6.5C115.2,261.7,110,261.5,104.8,261.5z"/>
<path fill="#FEFEFE" d="M393.6,389c-2.6-1.4-4.7-2.1-6.1-3.5c-7.2-7-14.3-14.2-21.3-21.4c-3.4-3.5-3.6-7.7-0.6-10.5
	c2.7-2.6,7-2.4,10.2,0.8c7.3,7.2,14.5,14.4,21.6,21.7c2.1,2.2,3.7,4.9,1.7,7.8C397.8,385.9,395.6,387.2,393.6,389z"/>
<path fill="#FEFEFE" d="M171.6,358.1c-1.5,2.5-2.3,4.6-3.7,6c-7,7.2-14.1,14.3-21.3,21.4c-3.2,3.2-7.4,3.4-10.2,0.7
	c-3-2.9-3-6.7,0.3-10.1c7.2-7.4,14.4-14.9,22.1-21.9c1.7-1.6,5.4-2.2,7.8-1.6C168.5,353.1,169.8,356,171.6,358.1z"/>
</svg>
