<svg
	version="1.1"
	xmlns="http://www.w3.org/2000/svg"
	xmlns:xlink="http://www.w3.org/1999/xlink"
	x="0px"
	y="0px"
	viewBox="0 0 140 120"
	enable-background="new 0 0 140 120"
	xml:space="preserve"
>
	<g fill="currentColor">
		<path
			d="M9.1,30.9c0,0.2,0,0.4,0,0.6c0,16,0,31.9,0,47.9c0,0.9-0.6,1.5-1.4,1.5c-0.6,0-1.2-0.5-1.2-1.2c0-0.1,0-0.3,0-0.4
	c0-15.9,0-31.8,0-47.8c0-0.2,0-0.4,0-0.6c-0.2,0-0.3,0-0.5,0c-1.5,0-3.1,0-4.6,0c-0.7,0-1.3-0.5-1.4-1.2c-0.1-0.6,0.3-1.2,1-1.4
	c0.2-0.1,0.5-0.1,0.7-0.1c16.6,0,33.1,0,49.7,0c1.4,0,2.8,0,4.1,0c0.7,0,1.4,0.6,1.4,1.3c0,0.8-0.5,1.3-1.3,1.4c-0.1,0-0.3,0-0.4,0
	c-15.1,0-30.3,0-45.4,0C9.5,30.9,9.4,30.9,9.1,30.9z"
		/>
		<path
			d="M17.1,84c0,0.3,0,0.5,0,0.6c0,11.3,0,22.6,0,33.9c0,0.9-0.5,1.5-1.3,1.4c-0.7,0-1.2-0.6-1.3-1.3c0-0.2,0-0.3,0-0.5
	c0-11.2,0-22.4,0-33.6c0-0.2,0-0.4,0-0.6c-0.2,0-0.4,0-0.5,0c-3.5,0-7,0-10.5,0c-0.4,0-0.8,0-1.2-0.3c-0.4-0.4-0.6-0.9-0.4-1.4
	c0.2-0.5,0.5-0.8,1.1-0.9c0.2,0,0.3,0,0.5,0c7,0,14,0,21,0c0.5,0,0.9,0,1.3,0.4c0.3,0.4,0.5,0.8,0.3,1.3c-0.2,0.5-0.5,0.8-1.1,0.9
	c-0.2,0-0.4,0-0.6,0c-2.2,0-4.4,0-6.7,0C17.5,84,17.3,84,17.1,84z"
		/>
		<path
			d="M2.9,24.7c0.7,0,1.4-0.1,2-0.1c0.1,0,0.3-0.1,0.4-0.1C5.7,24,6.3,24,6.9,24c0.8,0,1.6,0,2.4-0.1c1.6-0.1,2.7-1.3,2.8-2.9
	c0-0.4,0.1-0.9,0.1-1.3c0-0.3,0.1-0.4,0.4-0.4c0.9,0,1.8,0,2.7-0.1c1.9-0.4,3.3-1.6,4.1-3.4c0.4-0.9,0.7-2,0.9-3c0.4-2,0.7-4,1-6
	c0.2-1.1,0.3-2.2,0.6-3.3C22.3,1.4,24.2,0,26.4,0c2.3,0,4.2,1.6,4.7,3.8c0.7,3.3-1.9,6.2-5.2,5.9c-0.2,0-0.5-0.1-0.7-0.1
	c-0.6-0.2-1-0.9-0.9-1.5c0.2-0.7,0.8-1.1,1.5-1c1.4,0.2,2.5-0.6,2.7-1.9C28.7,4.1,28,3,27,2.7c-1.1-0.3-2.3,0.2-2.7,1.2
	c-0.2,0.6-0.3,1.3-0.4,1.9c-0.3,1.8-0.6,3.7-0.9,5.5c-0.2,1.3-0.4,2.6-0.7,3.9c-0.4,1.8-1.4,3.2-2.7,4.4C18.2,21,16.7,21.7,15,22
	c-0.1,0-0.3,0.2-0.4,0.4c-0.9,2.6-3.3,4.3-6,4.3c-0.6,0-1.2,0-1.7,0.5c-0.2,0.2-0.5,0.2-0.7,0.2c-1.6,0-3.2,0-4.8,0
	c-0.7,0-1.2-0.5-1.3-1.2C0,25.5,0.4,24.9,1,24.8c0.4-0.1,0.9,0,1.3,0C2.5,24.7,2.7,24.7,2.9,24.7C2.9,24.7,2.9,24.7,2.9,24.7z"
		/>
		<path
			d="M19.3,44.9c0.3,0.1,0.5,0.2,0.6,0.3c0.7,0.7,1.4,1.4,2,2.1c0.3,0.3,0.3,0.7,0.1,1c-0.3,0.2-0.7,0.2-1-0.1
	c-0.7-0.7-1.4-1.4-2.1-2.1c-0.2-0.2-0.4-0.5-0.2-0.7C18.9,45.2,19.1,45,19.3,44.9z"
		/>
		<path
			d="M32.1,73.3c0,0.5,0,1,0,1.5c0,0.4-0.2,0.7-0.6,0.7c-0.4,0-0.7-0.2-0.7-0.6c0-1,0-2.1,0-3.1c0-0.4,0.4-0.7,0.7-0.6
	c0.4,0.1,0.6,0.3,0.6,0.7C32.1,72.3,32.1,72.8,32.1,73.3z"
		/>
		<path
			d="M15.9,58.4c-0.5,0-1,0-1.5,0c-0.4,0-0.7-0.3-0.7-0.6c0-0.3,0.3-0.7,0.7-0.7c1,0,2,0,3.1,0c0.5,0,0.7,0.3,0.6,0.7
	c0,0.4-0.2,0.6-0.7,0.6C16.9,58.4,16.4,58.4,15.9,58.4z"
		/>
		<path
			d="M43.6,70.6c-0.2-0.1-0.5-0.2-0.6-0.3c-0.7-0.7-1.4-1.4-2-2c-0.3-0.3-0.3-0.7-0.1-1c0.3-0.2,0.7-0.2,1,0.1
	c0.7,0.7,1.4,1.4,2.1,2.1c0.2,0.2,0.4,0.5,0.2,0.7C44,70.3,43.8,70.4,43.6,70.6z"
		/>
		<path
			d="M22.3,67.6c-0.1,0.2-0.2,0.4-0.4,0.6c-0.7,0.7-1.4,1.4-2,2.1c-0.3,0.3-0.7,0.3-1,0.1c-0.3-0.3-0.3-0.6,0-1
	c0.7-0.7,1.4-1.4,2.1-2.1c0.2-0.2,0.5-0.2,0.7-0.2C22,67.2,22.1,67.4,22.3,67.6z"
		/>
	</g>
	<g fill="var(--color-accent)">
		<path
			d="M23.7,102.9c0-3.1,0-6.2,0-9.2c0-3.8,2.9-7,6.3-7.7c4.2-0.8,8.4,2,9.2,6.4c0.1,0.6,0.1,1.2,0.1,1.8
		c0,0.8-0.6,1.3-1.4,1.3c-0.7,0-1.2-0.6-1.2-1.4c0.1-1.5-0.3-2.8-1.3-3.9c-1.4-1.6-3.2-2.1-5.2-1.6c-2,0.5-3.3,1.9-3.7,3.9
		c-0.1,0.3-0.1,0.6-0.1,1c0,6.2,0,12.5,0,18.7c0,2.4,1.8,4.6,4.1,5c3.1,0.6,5.9-1.5,6.2-4.6c0-0.3,0-0.6,0-1c0-0.8,0.5-1.4,1.3-1.4
		c0.7,0,1.3,0.6,1.4,1.3c0.2,4-2.3,7.4-6.1,8.2c-4.4,1-8.5-1.8-9.4-6.2c-0.1-0.4-0.1-0.8-0.1-1.1C23.7,109.3,23.7,106.1,23.7,102.9z
		"
		/>
		<path
			d="M74.3,115c-0.7,0.2-0.9,0.6-0.8,1.3c0.1,0.8,0,1.6,0,2.3c0,0.8-0.6,1.4-1.3,1.4c-0.8,0-1.3-0.6-1.3-1.4
		c0-11,0-22.1,0-33.1c0-0.9,0.5-1.4,1.3-1.4c0.8,0,1.3,0.6,1.3,1.4c0,8.7,0,17.5,0,26.2c0,0.2,0,0.4,0,0.6c0.1-0.1,0.3-0.1,0.4-0.2
		c0.9-0.5,1.7-1.1,2.6-1.6c0.6-0.3,1.2-0.2,1.6,0.2c0.4,0.4,0.5,1.1,0.2,1.5c-0.2,0.3-0.4,0.5-0.7,0.7c-0.3,0.2-0.6,0.4-1,0.6
		c0.5,0.6,1,1.3,1.6,1.9c0.6,0.8,1.3,1.5,1.9,2.3c0.6,0.7,0.5,1.5-0.1,2c-0.6,0.5-1.4,0.3-1.9-0.4c-1.1-1.4-2.3-2.8-3.4-4.1
		C74.5,115.1,74.4,115,74.3,115z"
		/>
		<path
			d="M123,114.9c-0.1,0-0.1,0.1-0.2,0.1c-0.5,0.2-0.7,0.6-0.7,1.2c0.1,0.8,0,1.6,0,2.4c0,0.7-0.5,1.3-1.1,1.4
		c-0.6,0.1-1.2-0.2-1.5-0.9c-0.1-0.2-0.1-0.3-0.1-0.5c0-11.1,0-22.1,0-33.2c0-0.7,0.5-1.3,1.1-1.4c0.8,0,1.4,0.4,1.5,1.2
		c0,0.2,0,0.3,0,0.5c0,8.7,0,17.3,0,26c0,0.2,0,0.3,0,0.6c0.6-0.4,1.1-0.7,1.7-1c0.4-0.3,0.8-0.5,1.3-0.8c0.7-0.4,1.4-0.2,1.8,0.4
		c0.4,0.6,0.2,1.4-0.5,1.8c-0.4,0.3-0.8,0.5-1.2,0.8c0.7,0.8,1.3,1.6,2,2.4c0.5,0.6,1,1.2,1.5,1.9c0.5,0.6,0.4,1.4-0.1,1.9
		c-0.6,0.5-1.4,0.4-1.9-0.3c-1.2-1.4-2.3-2.8-3.5-4.2C123.2,115.1,123.1,115.1,123,114.9z"
		/>
		<path
			d="M45.9,102c0-5.4,0-10.9,0-16.3c0-0.3,0-0.6,0.1-0.9c0.2-0.6,0.8-0.8,1.5-0.7c0.5,0.1,0.9,0.6,1,1.1
		c0,0.1,0,0.3,0,0.4c0,10.9,0,21.8,0,32.7c0,0.9-0.3,1.3-0.9,1.6c-0.7,0.3-1.6-0.2-1.7-1c0-0.2,0-0.4,0-0.7
		C45.9,112.8,45.9,107.4,45.9,102z"
		/>
		<path
			d="M32.8,56.4c1.7-0.1,3.3,0.2,4.9-0.5c1.1-0.5,2.3-0.5,3.4,0c1.1,0.5,2.2,1,3.2,1.6c0.6,0.4,0.6,0.8-0.1,1.1
		c-0.5,0.2-1,0.4-1.5,0.4c-3.8,0-7.5,0-11.3,0c-0.8,0-1.3-0.6-1.3-1.4c0-5.9,0-11.9,0-17.8c0-0.4,0-0.8,0.1-1.3
		c0.1-0.3,0.2-0.6,0.4-0.9c0.3-0.5,0.7-0.5,1,0c0.5,0.9,1,1.8,1.5,2.7c0.5,1,0.7,2.1,0.4,3.2c-0.1,0.3-0.1,0.6-0.2,0.8
		c-0.3,0.8-0.5,1.6-0.5,2.5c0,3.1,0,6.1,0,9.2C32.8,56.2,32.8,56.3,32.8,56.4z M41.3,57.4c-1-0.6-2.5-0.7-3.4-0.1
		C38.5,57.9,40.5,57.9,41.3,57.4z M31.8,40.8c-0.5,0.8-0.5,2.9,0.1,3.5C32.4,43.1,32.4,42,31.8,40.8z"
		/>
		<path
			d="M89.1,118.5c-1,1-2.2,1.5-3.6,1.5c-2.1,0-4-1.5-4.6-3.6c-0.6-2.1,0.4-4.4,2.3-5.4c0.7-0.4,1.2-0.1,1.2,0.7
		c0,0.2,0,0.4,0,0.6c0,0.6,0,1.1-0.5,1.6c-0.7,0.7-0.6,1.8-0.1,2.6c0.5,0.8,1.5,1.1,2.4,0.9c0.9-0.3,1.5-1.1,1.5-2.1
		c0-0.8,0.4-1.3,1-1.5c0.7-0.2,1.5,0.4,1.6,1.1c0,0.3,0,0.6,0.1,1c0.2,0.9,1.1,1.5,1.9,1.5c0.9,0.1,1.7-0.4,2.1-1.3
		c0.4-0.8,0.2-1.8-0.4-2.4c-0.3-0.3-0.4-0.6-0.4-1c0-0.3,0-0.7,0-1c0-0.8,0.5-1.1,1.2-0.7c1.2,0.7,2,1.7,2.3,3.1
		c0.8,3.1-1.7,6.1-4.9,6C91.2,119.9,90,119.4,89.1,118.5z"
		/>
		<path
			d="M133.1,113.4c0.5,0.1,1,0.3,1.6,0.4c0.7,0.1,1.4,0.1,2.1,0.3c0.9,0.2,1.7,0.5,2.4,1.2
		c1.1,1.1,1,2.5-0.2,3.5c-0.9,0.7-1.9,1-3,1.2c-1,0.1-1.9,0-2.8-0.2c-0.9-0.2-1.7-0.6-2.4-1.3c-0.5-0.4-0.5-1-0.3-1.5
		c0.3-0.5,0.9-0.8,1.5-0.6c0.2,0.1,0.4,0.1,0.5,0.2c1.2,1,2.6,0.9,4,0.6c0.2,0,0.3-0.2,0.4-0.4c-0.1-0.1-0.3-0.3-0.4-0.3
		c-0.8-0.1-1.7-0.2-2.5-0.4c-0.8-0.1-1.6-0.5-2.3-1c-1.4-1.1-1.3-2.9,0.2-4c0.8-0.6,1.7-0.8,2.6-0.9c1.3,0,2.6,0.1,3.8,0.7
		c0.5,0.2,0.7,0.6,0.7,1.2c0,1-0.9,1.6-1.8,1.1c-1.3-0.6-2.6-0.5-3.9-0.3c-0.1,0-0.1,0.1-0.2,0.1
		C133.1,113.3,133.1,113.4,133.1,113.4z"
		/>
		<path
			d="M90.1,54.2c0.1,1.8,1.8,2.6,3.1,2.1c0.2-0.1,0.5-0.2,0.6-0.4c0.3-0.3,0.6-0.4,1-0.4c0.3,0,0.7,0,1.1,0
		c0.7,0,1,0.5,0.7,1.1c-0.6,1.1-1.6,1.9-2.8,2.3c-2.8,0.8-5.5-0.9-6.1-3.7c-0.5-2.6,1.4-5.3,4-5.7c2.4-0.4,5.1,1.3,5.4,3.9
		c0.1,0.6-0.1,0.9-0.8,0.9c-1.9,0-3.8,0-5.7,0C90.4,54.2,90.2,54.2,90.1,54.2z M93.9,52.8c-0.9-1.2-2.8-0.9-3.3,0
		C91.7,52.8,92.8,52.8,93.9,52.8z"
		/>
		<path
			d="M69.3,54.2c-0.1,0.9,0.4,1.7,1.2,2c0.8,0.4,1.8,0.2,2.5-0.4c0.3-0.3,0.6-0.4,1-0.4c0.4,0,0.7,0,1.1,0
		c0.6,0,1,0.5,0.7,1.1c-0.7,1.3-1.8,2.2-3.3,2.4c-2.6,0.5-4.9-1-5.7-3.5c-0.7-2.7,1.2-5.5,3.9-6c2.3-0.4,4.9,1.2,5.4,3.6
		c0,0.1,0,0.3,0,0.4c0,0.5-0.2,0.7-0.7,0.7c-1.9,0-3.7,0-5.6,0C69.6,54.2,69.5,54.2,69.3,54.2z M69.7,52.8c1.1,0,2.2,0,3.3,0
		C72.2,51.7,70.7,51.7,69.7,52.8z"
		/>
		<path
			d="M50.3,59.1c-2.6,0-4.8-2.2-4.8-4.9c0-2.6,2.2-4.8,4.8-4.8c2.6,0,4.8,2.2,4.8,4.8
		C55.1,56.9,52.9,59.1,50.3,59.1z M50.3,56.4c1.2,0,2.2-1,2.2-2.2c0-1.2-1-2.2-2.2-2.2c-1.2,0-2.2,1-2.2,2.2
		C48.1,55.5,49,56.4,50.3,56.4z"
		/>
		<path
			d="M108.2,115.1c0.1,2.6-2.1,4.9-4.9,4.9c-2.6,0-4.8-2-4.8-4.8c0-2.8,2.1-4.8,4.8-4.9
		C106.1,110.3,108.2,112.5,108.2,115.1z M105.6,115.2c0-1.3-0.9-2.2-2.2-2.2c-1.2,0-2.2,1-2.2,2.2c0,1.2,1,2.2,2.2,2.2
		C104.6,117.3,105.6,116.4,105.6,115.2z"
		/>
		<path
			d="M49.7,115.1c0-2.7,2.2-4.9,4.8-4.8c2.7,0,4.8,2.1,4.8,4.8c0,2.8-2.2,4.9-5,4.9
		C51.7,119.9,49.6,117.7,49.7,115.1z M54.5,117.3c1.2,0,2.2-1,2.2-2.2c0-1.2-1-2.2-2.2-2.2c-1.2,0-2.2,1-2.2,2.2
		C52.3,116.4,53.2,117.3,54.5,117.3z"
		/>
		<path
			d="M79.8,50.1c1.4-0.8,2.8-0.9,4.3-0.4c1.5,0.5,2.2,1.5,2.2,3.1c0,1.6,0,3.3,0,4.9c0,0.8-0.5,1.4-1.3,1.4
		c-0.8,0-1.3-0.6-1.3-1.4c0-1.4,0-2.9,0-4.3c0-1-0.3-1.4-1.3-1.4c-0.5,0-1,0.1-1.4,0.2c-0.6,0.2-0.9,0.8-0.9,1.4c0,1.3,0,2.6,0,3.9
		c0,0.5-0.1,0.9-0.4,1.2c-0.4,0.3-0.8,0.5-1.3,0.3c-0.5-0.2-0.8-0.6-0.8-1.1c0-1.2,0-2.3,0-3.5c0-1.2,0-2.3,0-3.5
		c0-0.6,0.2-1.1,0.7-1.3c0.5-0.3,1-0.2,1.4,0.2C79.5,49.8,79.6,49.9,79.8,50.1z"
		/>
		<path
			d="M68.2,113.9c-0.1,0-0.3,0-0.4,0c-0.4,0-0.7-0.1-1-0.4c-0.7-0.7-1.6-0.8-2.5-0.3c-0.9,0.4-1.3,1.3-1.2,2.3
		c0.1,0.8,0.8,1.6,1.7,1.8c0.8,0.2,1.5,0,2.1-0.6c0.2-0.2,0.4-0.3,0.8-0.3c0.4,0,0.8,0,1.2,0c0.7,0,1,0.5,0.6,1.1
		c-0.8,1.3-1.9,2.1-3.4,2.4c-2.6,0.5-4.9-1.3-5.5-3.6c-0.7-2.7,1.2-5.5,4-6c1.9-0.3,4,0.8,4.8,2.3c0.1,0.3,0.2,0.6,0.1,0.9
		c-0.1,0.3-0.4,0.3-0.7,0.3C68.6,113.9,68.4,113.9,68.2,113.9z"
		/>
		<path
			d="M64,53c-0.2,0-0.3,0-0.5,0c-0.4,0-0.6-0.1-0.9-0.4c-0.7-0.7-1.7-0.8-2.5-0.4c-0.8,0.4-1.3,1.3-1.2,2.3
		c0.1,0.9,0.8,1.6,1.7,1.8c0.8,0.2,1.5,0,2-0.6c0.2-0.3,0.5-0.4,0.8-0.3c0.4,0,0.8,0,1.2,0c0.7,0,1,0.5,0.6,1.1
		c-0.7,1.2-1.8,2.1-3.2,2.4c-2.6,0.6-5.1-1-5.7-3.6c-0.7-2.7,1.2-5.5,4-5.9c1.9-0.3,4,0.8,4.8,2.3c0.1,0.3,0.2,0.6,0.1,0.9
		C65.2,53,64.9,53,64.6,53C64.4,53,64.2,53,64,53z"
		/>
		<path
			d="M111.9,111c1.5-0.8,3-0.9,4.6-0.3c0.8,0.3,1.4,0.9,1.7,1.7c0.3,0.6,0.1,1.3-0.4,1.7
		c-0.6,0.4-1.2,0.3-1.7-0.2c-0.4-0.4-0.7-0.9-1.4-1c-1.9-0.2-2.6,0.6-2.7,2.1c0,1.2,0,2.4,0,3.6c0,0.9-0.6,1.4-1.4,1.4
		c-0.6,0-1.1-0.5-1.2-1.1c0-0.6,0-1.2,0-1.8c0-1.7,0-3.4,0-5.1c0-0.8,0.3-1.4,0.8-1.6C110.8,110.2,111.3,110.3,111.9,111z"
		/>
	</g>
</svg>
