<svg version="1.1" xmlns="http://www.w3.org/2000/svg" xmlns:xlink="http://www.w3.org/1999/xlink" x="0px" y="0px"
	 viewBox="0 0 400 140" enable-background="new 0 0 400 140" xml:space="preserve">
<g>
	<path fill="currentColor" d="M110.4,40.2c-2.4-3-4.7-5.3-7.1-6.8s-5-2.6-7.9-3.4c-2.9-0.8-5.9-1.2-8.9-1.2c-4.5,0-8.2,0.5-11.2,1.4
		c-4.2,1.4-7.5,3-9.9,4.8C63,37,61,39.2,59.3,42c-1.7,2.7-2.9,5.2-3.6,7.6c-0.7,2.3-1.1,5-1.1,8c0,3.6,0.5,7,1.6,10
		c1.1,3.1,2.7,5.9,4.8,8.4s4.2,4.5,6.2,5.8c2,1.3,4.5,2.4,7.5,3.3c3,0.9,6.4,1.4,10.3,1.4c3.8,0,7.3-0.5,10.6-1.6s6-2.4,8.2-4.1
		c3.3-2.5,5.6-4.7,7-6.7c1.7-2.5,3-5,3.7-7.5c0.7-2.5,1.1-5.7,1.1-9.6c0-3.4-0.5-6.7-1.6-9.9C113.3,44.6,112.1,42.3,110.4,40.2z
		 M106.8,67c-0.7,3.2-1.6,5.8-2.8,7.8s-2.7,3.8-4.8,5.4s-4.3,2.7-7,3.4c-2.6,0.7-5.1,1-7.6,1c-2.6,0-5.1-0.5-7.3-1.4
		c-2.3-0.9-4.3-2.3-6.2-4s-3.4-3.7-4.6-6c-1.3-2.3-2.3-4.9-3-8s-1.1-5.8-1.1-8.2c0-2.3,0.4-5,1.1-8s1.8-5.8,3.2-8.3
		c1.4-2.5,2.9-4.4,4.5-5.8c1.6-1.4,3.7-2.5,6.2-3.4c2.5-0.9,5.1-1.3,7.7-1.3c3.2,0,6.3,0.6,9.2,1.9c2.9,1.3,5.3,3.1,7.3,5.4
		c2,2.3,3.5,5,4.4,7.9c1.2,3.9,1.7,7.8,1.7,11.8C107.9,60.7,107.5,63.9,106.8,67z"/>
	<path fill="currentColor" d="M179.1,72.1c-0.9,2-2,3.8-3.4,5.3c-1.3,1.5-2.7,2.7-4,3.5s-3.1,1.6-5.2,2.2c-0.8,0.3-2.4,0.5-4.7,0.8l-2,0
		c-3.3,0-6.6-0.9-9.9-2.6s-5.8-4.6-7.7-8.7s-2.8-9.2-2.8-15.5c0-3.3,0.4-6.5,1.2-9.6s1.9-5.8,3.2-8s3-4.1,5-5.7
		c2-1.6,4.3-2.8,6.9-3.7c1.5-0.5,3.3-0.7,5.4-0.7c4.1,0,7.5,0.9,10.2,2.8s4.7,4.5,5.9,7.9c0.3,0.1,0.6,0.1,0.7,0.1
		c0.2,0,0.5,0,0.9-0.1c0-0.8,0-1.4,0-1.9c0-2.4-0.2-4.7-0.5-6.9c-1-0.8-2.9-1.7-5.7-2.5c-2.8-0.9-5.9-1.3-9.1-1.3
		c-4.4,0-7.8,0.3-10.2,0.8c-3.4,0.8-6.5,2.1-9.3,4s-5.2,4.3-7.3,7.1s-3.6,5.7-4.6,8.5c-1,2.8-1.5,6.1-1.5,9.8
		c0,3.9,0.6,7.6,1.9,10.9c1.2,3.3,2.9,6.1,4.9,8.3c2,2.2,4.4,4,7.1,5.3c2.7,1.3,5.2,2.3,7.4,2.9c2.3,0.6,5.7,0.9,10.3,0.9
		c5.7,0,10.2-0.6,13.6-1.8c0.7-0.2,1.3-0.4,1.7-0.5c0.5-1.8,1.4-5.2,2.6-10.1c0-0.2,0.1-0.7,0.1-1.4c-0.3-0.2-0.5-0.3-0.7-0.3
		L179.1,72.1z"/>
	<path fill="currentColor" d="M248.2,71.8c-1.8,4.1-3.3,6.7-4.5,8c-1.2,1.2-2.7,2.1-4.6,2.6c-1.9,0.5-5.6,0.7-11.2,0.7
		c-2.3,0-4.3,0-5.8-0.1c-1.6,0-2.5-0.1-2.7-0.1l-2.6,0c-1.6,0-2.7-0.3-3.2-1c-0.3-0.5-0.5-2.2-0.6-5.2l0-5l0-5.1l0-8.1l0-1.5
		c1.2-0.2,3.9-0.3,7.9-0.3h2.8c2.1,0,3.7,0,4.8-0.1c1.1,0,1.8-0.1,2.2-0.1c1.9,0,3.2,0.4,4,1.1c0.8,0.7,1.6,2.6,2.4,5.5
		c0.4,1.7,0.9,3,1.3,3.8h0.3c0.1,0,0.3-0.1,0.6-0.2c0.1-0.4,0.1-0.8,0.1-1.1c0-0.1-0.1-1.2-0.2-3s-0.2-3.6-0.2-5.1
		c0-5.7,0.1-9.1,0.2-10.2c0.1-0.5,0.1-0.8,0.1-1c0-0.2,0-0.4-0.1-0.7c-0.3-0.1-0.7-0.2-1-0.2c-0.8,0.3-1.2,1.5-1.5,3.8
		c-0.2,2.2-0.5,3.6-1,4.1c-0.3,0.4-1.2,0.7-2.7,0.9c-4.9,0-8.9,0.1-12.1,0.2c-0.3,0-0.6,0-0.9,0c-0.5,0-1.5,0-3-0.1
		c-1,0-1.7,0-2.2,0h-0.7c-0.4,0-0.7,0-1-0.1v-6.1c-0.1-6.7-0.2-10.2-0.2-10.5c0-3.4,0.2-5.5,0.7-6.2c0.3-0.4,1.3-0.6,2.9-0.6h1.1
		l12.4-0.3c0.6,0,1.2,0,1.9,0c2.4,0.1,3.7,0.1,4,0.1c1.3,0,2.1,0.1,2.5,0.4c0.4,0.2,1,1,1.7,2.2c1.1,1.8,1.9,3.5,2.4,4.9
		s1,2.4,1.3,2.9c0.3,0.1,0.5,0.1,0.9,0.1c0.1-0.1,0.2-0.2,0.3-0.4c-0.2-2.1-0.3-4.7-0.3-7.7c0-0.2,0.1-0.7,0.2-1.6
		c0.1-0.8,0.2-1.5,0.2-1.9c-0.1-0.3-0.2-0.5-0.3-0.7l-0.4-0.2l-3.6,0.1l-0.7-0.1l-6.2,0c-2.6-0.1-4.3-0.2-4.9-0.2
		c-0.8,0-2.2,0-4.3,0.1s-5.1,0.1-8.9,0.1l-7.6-0.2l-3.2,0.1c-1.8,0-3.6-0.1-5.3-0.3c-0.6,0-1.1,0-1.5,0c-0.2,0-0.4,0.1-0.7,0.2
		c-0.1,0.3-0.2,0.6-0.2,0.8c0,0.3,0.2,0.6,0.6,0.8c0.8,0.1,1.8,0.2,2.9,0.3c2.6,0.1,4.1,0.4,4.6,1c0.3,0.4,0.5,2.1,0.6,5.1l0.2,12.5
		l0,11l0.1,5.3l0,11.2l0,3.1c0,1.1-0.2,1.9-0.6,2.5c-0.7,0.4-2.4,0.6-5.2,0.8c-1.2,0.1-2,0.2-2.5,0.4c-0.2,0.1-0.4,0.2-0.7,0.5
		l0,0.4c0,0.3,0.1,0.5,0.2,0.6c0.2,0.1,0.5,0.2,0.9,0.2c2.5,0,6.3-0.1,11.5-0.4c0.6,0,1.2,0,1.9,0h5.3l13-0.2l5.5,0l12.2-0.1h1
		c0.5-0.6,0.7-1.4,0.7-2.4c0.1-2.1,0.2-4.2,0.6-6.3c0.1-0.9,0.6-2.8,1.4-5.7c-0.3-0.2-0.6-0.4-0.9-0.4
		C249.3,70,248.8,70.6,248.2,71.8z"/>
	<path fill="currentColor" d="M326.9,28.7c-2.8,0.2-4.9,0.3-6.2,0.3c-1,0-2-0.1-3.2-0.3c-1.2-0.2-2.2-0.3-3-0.3c-0.8,0-1.5,0.1-2.3,0.4
		c-0.2,0.4-0.3,0.8-0.4,1.3c0.2,0.4,0.5,0.7,0.7,0.7c0.2,0.1,1,0.2,2.3,0.2c1.1,0.1,1.9,0.2,2.4,0.3c2.2,0.4,3.4,0.8,3.7,1.2
		c0.4,0.5,0.6,2.4,0.6,5.6c0,1.8,0.1,3.9,0.3,6.2c0.2,2.4,0.3,4,0.3,4.8c0.2,6.2,0.3,9.9,0.3,11.1v1.9l0.1,4.1l-0.2,2.6
		c0,0.2,0.1,2.4,0.3,6.4l0,0.7c-1.6-1.7-2.9-3.1-3.9-4.3l-10.4-11.6c-4.4-4.9-7.4-8.1-8.9-9.7c-1.5-1.5-3.2-3.4-5.1-5.6l-1.3-1.6
		L283.8,33c-0.3-0.3-0.5-0.6-0.8-0.9c-1-1.3-2.2-2.5-3.4-3.5c-0.5,0-0.9,0-1.2,0c-0.3,0-0.9,0-1.7,0.1c-2.1,0.2-5.4,0.4-9.9,0.4
		l0,2.1c0.5,0.1,1.7,0.3,3.5,0.5c1.8,0.2,3.2,0.7,4.3,1.5c0.5,0.4,0.9,0.9,1.1,1.4c0.3,1,0.5,4.3,0.6,9.8l0.1,12.5v6
		c0.1,4.8,0.1,8.1,0.1,10c0,3.9-0.2,6.8-0.5,8.9c-0.3,0.4-0.8,0.7-1.3,0.9c-0.8,0.3-2.2,0.6-4,0.9l-2,0.3l-1.1,0.5l0,1.3
		c0.5,0.1,0.9,0.1,1.1,0.1l0.6,0c2.2-0.1,4.7-0.2,7.6-0.2c4.1,0,7.6,0.1,10.5,0.4c0.5,0.1,0.9,0.1,1.2,0.1c0.3,0,0.7-0.1,1.1-0.2
		l0-1.7c-0.1-0.1-0.3-0.2-0.5-0.4c-2.7-0.5-5.4-0.9-8.1-1.2l-1.5-0.4c-0.1-1.1-0.2-2.3-0.2-3.6l-0.3-14.5c-0.3-10-0.4-17.9-0.4-23.6
		l0.1-1.5c0.8,0.6,1.3,1.1,1.8,1.5c0.4,0.4,1.5,1.6,3.1,3.6c2.6,3.1,4.6,5.4,6,6.8c5,5.4,9.1,10,12.3,13.6c0.2,0.2,0.5,0.5,1,1
		c0.4,0.4,1.4,1.5,2.8,3.1l3.7,4.3c0.5,0.6,1.4,1.6,2.8,3c6,6.2,9.5,9.9,10.5,11.1l2-0.2c0.1-3.2,0.2-5.3,0.2-6.3
		c0-4.4-0.1-9.7-0.3-15.7l-0.3-8.8l0-1.8l-0.3-6.4l-0.5-13.9c0-0.8,0.3-1.6,1-2.3c0.2-0.2,0.8-0.5,1.9-0.8c0.7-0.2,1.4-0.3,2.3-0.4
		c0.8,0,1.4-0.2,1.9-0.4l0.1-1.4h-0.7C329.6,28.6,328.5,28.6,326.9,28.7z"/>
	<path fill="currentColor" d="M399.1,70c-0.5,0-1.1,0.6-1.6,1.8c-1.8,4.1-3.3,6.7-4.5,8c-1.2,1.2-2.7,2.1-4.6,2.6
		c-1.9,0.5-5.6,0.7-11.2,0.7c-2.3,0-4.3,0-5.8-0.1c-1.6,0-2.5-0.1-2.7-0.1l-2.6,0c-1.6,0-2.7-0.3-3.2-1c-0.3-0.5-0.5-2.2-0.6-5.2
		l0-5l0-5.1l0-8.1l0-1.5c1.2-0.2,3.9-0.3,7.9-0.3h2.8c2.1,0,3.7,0,4.8-0.1c1.1,0,1.8-0.1,2.2-0.1c1.9,0,3.2,0.4,4,1.1
		c0.8,0.7,1.6,2.6,2.4,5.5c0.4,1.7,0.9,3,1.3,3.8h0.3c0.1,0,0.3-0.1,0.6-0.2c0.1-0.4,0.1-0.8,0.1-1.1c0-0.1-0.1-1.2-0.2-3
		s-0.2-3.6-0.2-5.1c0-5.7,0.1-9.1,0.2-10.2c0.1-0.5,0.1-0.8,0.1-1c0-0.2,0-0.4-0.1-0.7c-0.3-0.1-0.7-0.2-1-0.2
		c-0.8,0.3-1.2,1.5-1.5,3.8c-0.2,2.2-0.5,3.6-1,4.1c-0.3,0.4-1.2,0.7-2.7,0.9c-4.9,0-8.9,0.1-12.1,0.2c-0.3,0-0.6,0-0.9,0
		c-0.5,0-1.5,0-3-0.1c-1,0-1.7,0-2.2,0h-0.7c-0.4,0-0.7,0-1-0.1v-6.1c-0.1-6.7-0.2-10.2-0.2-10.5c0-3.4,0.2-5.5,0.7-6.2
		c0.3-0.4,1.3-0.6,2.9-0.6h1.1l12.4-0.3c0.6,0,1.2,0,1.9,0c2.4,0.1,3.7,0.1,4,0.1c1.3,0,2.1,0.1,2.5,0.4c0.4,0.2,1,1,1.7,2.2
		c1.1,1.8,1.9,3.5,2.4,4.9s1,2.4,1.3,2.9c0.3,0.1,0.5,0.1,0.9,0.1c0.1-0.1,0.2-0.2,0.3-0.4c-0.2-2.1-0.3-4.7-0.3-7.7
		c0-0.2,0.1-0.7,0.2-1.6c0.1-0.8,0.2-1.5,0.2-1.9c-0.1-0.3-0.2-0.5-0.3-0.7l-0.4-0.2l-3.6,0.1l-0.7-0.1l-6.2,0
		c-2.6-0.1-4.3-0.2-4.9-0.2c-0.8,0-2.2,0-4.3,0.1c-2.1,0.1-5.1,0.1-8.9,0.1l-7.6-0.2l-3.2,0.1c-1.8,0-3.6-0.1-5.3-0.3
		c-0.6,0-1.1,0-1.5,0c-0.2,0-0.4,0.1-0.7,0.2c-0.1,0.3-0.2,0.6-0.2,0.8c0,0.3,0.2,0.6,0.6,0.8c0.8,0.1,1.8,0.2,2.9,0.3
		c2.6,0.1,4.1,0.4,4.6,1c0.3,0.4,0.5,2.1,0.6,5.1l0.2,12.5l0,11l0.1,5.3l0,11.2l0,3.1c0,1.1-0.2,1.9-0.6,2.5
		c-0.7,0.4-2.4,0.6-5.2,0.8c-1.2,0.1-2,0.2-2.5,0.4c-0.2,0.1-0.4,0.2-0.7,0.5l0,0.4c0,0.3,0.1,0.5,0.2,0.6c0.2,0.1,0.5,0.2,0.9,0.2
		c2.5,0,6.3-0.1,11.5-0.4c0.6,0,1.2,0,1.9,0h5.3l13-0.2l5.5,0l12.2-0.1h1c0.5-0.6,0.7-1.4,0.7-2.4c0.1-2.1,0.2-4.2,0.6-6.3
		c0.1-0.9,0.6-2.8,1.4-5.7C399.7,70.1,399.4,70,399.1,70z"/>
	<path fill="currentColor" d="M38.2,78.2c-2,0-3.6,1.3-4.3,3.1l-6.4,0.2h-3c-3.5,0-5.7-0.1-6.4-0.1c-0.3-0.2-0.4-0.7-0.4-1.6l0-2.7
		l0.1-11.6l-0.1-14.5v-2.8l0-8.1v-2.6c0.1-1.4,0.1-2.4,0.1-2.9c0-2,0.3-3.1,1-3.5c0.4-0.2,2-0.4,4.6-0.5c2.7-0.1,4.2-0.2,4.5-0.2
		c0.2-0.6,0.3-1.2,0.3-1.7c-1-0.1-2.6-0.1-5-0.1l-3.5,0.3c-0.3,0-1.2,0-3,0c-0.7-0.1-1.1-0.1-1.3-0.1l-0.2,0v-2.5
		c1.7-0.6,3-2.3,3-4.3c0-1.6-1.9-5.1-3.2-7.3L13.9,0l-1.3,14.6c-1.3,2.2-3.2,5.7-3.2,7.3c0,2,1.3,3.7,3,4.3v2.5l-1.7,0L4,28.4
		c-1.2-0.1-2.1-0.1-2.7-0.1c0,0.3,0,0.5,0,0.7c0,0.1,0,0.4,0,0.7c4,0.7,6.3,1.2,6.8,1.3c0.5,0.1,1.1,0.4,1.9,0.7
		c0.2,0.5,0.3,0.9,0.4,1.2c0.1,1.5,0.1,5.4,0.1,11.5v2.7l0,10.3l0,7.9l-0.3,11.6c-0.1,2.4-0.2,3.8-0.5,4.2c-0.4,0.5-1.3,0.9-2.7,1
		c-2.1,0.2-4.3,0.6-6.6,1.2C0.1,83.6,0,84,0,84.5h4.5c0.9,0,1.8,0,2.6-0.1c0.5-0.1,1.3-0.1,2.3-0.1c0.3,2.2,2.2,4,4.5,4
		c2.4,0,4.3-1.8,4.5-4.2C22,84,26.6,84,31.9,84l2,0.1c0.5,1.9,2.3,3.3,4.3,3.3c1.9,0,6.1-2.5,8.2-3.8l8.1-0.7L46.4,82
		C44.3,80.7,40.1,78.2,38.2,78.2z"/>
</g>
<g>
	<path fill="currentColor" d="M30.8,111.9c0.1,0.3,0.4,1.2,0.8,2.8c0.2,0.7,0.3,1.4,0.3,2.2h-1.5c-1-1.5-2.1-2.5-3.2-3.2
		c-1.1-0.6-2.3-1-3.6-1c-1.7,0-3,0.7-4,2c-1.4,1.8-2.1,4.2-2.1,7.4c0,1.8,0.1,3.1,0.4,3.9c0.4,1.3,0.9,2.3,1.5,3.1
		c0.4,0.6,1,1.1,1.8,1.4c0.9,0.5,1.9,0.7,3,0.7c1.2,0,2.3-0.4,3.4-1.1c1.1-0.7,2.1-1.8,3.1-3.3c0.4-0.1,0.9-0.1,1.5-0.1
		c0,0.4-0.1,0.8-0.2,1.3c0,0.2-0.2,0.9-0.4,2l-0.1,0.5l-0.2,0.8c-0.6,0.5-1.6,0.9-2.7,1.1c-1.2,0.3-2.6,0.4-4.3,0.4
		c-1.3,0-2.5-0.1-3.7-0.4c-1.2-0.2-2.2-0.6-3-1.2c-1.2-0.8-2.2-1.6-2.9-2.5c-0.7-0.9-1.2-1.9-1.5-3c-0.3-1.1-0.5-2.3-0.5-3.6
		c0-3.2,1-5.9,3.1-7.9s4.8-3.1,8-3.1c1.3,0,2.6,0.1,3.7,0.2C28.7,111.4,29.8,111.6,30.8,111.9z"/>
	<path fill="currentColor" d="M50.4,131.1c0.3-0.1,0.8-0.2,1.4-0.3c0.6-0.1,1-0.1,1.1-0.1c0.4,0,0.7-0.1,0.8-0.2c0.1-0.3,0.1-0.5,0.1-0.6
		l0-2.1l0.1-2.1v-1.3l0-1.6l0-1.7l0.1-3.6l0-1.6v-0.2c-0.1-1.1-0.1-1.8-0.2-1.9c-0.1-0.1-0.4-0.3-0.9-0.4c-0.1,0-0.3-0.1-0.6-0.2
		c-0.3-0.1-0.5-0.2-0.7-0.2c-0.4-0.1-0.6-0.2-0.8-0.3c0-0.3,0-0.5,0-0.6c0-0.1,0-0.2,0-0.4c0.1-0.1,0.2-0.1,0.3-0.1
		c0.3,0,1.2,0,2.8,0.1l2.3,0l1.7,0c0.7,0,1.7,0,2.8-0.1c0.3,0,0.5,0,0.6,0c0.2,0,0.3,0,0.3,0.1c0.1,0.1,0.1,0.3,0.1,0.6
		c0,0.2-0.1,0.4-0.2,0.6c-0.1,0.1-0.3,0.1-0.7,0.2l-2,0.5c-0.1,0-0.1,0.1-0.3,0.1c0,0.1-0.1,0.1-0.1,0.2l0,0.5l0,1v0.3v0.2
		c0,0.1,0,0.3,0,0.9c0,0.1,0,0.3,0,0.4c0,0.2,0,0.5,0,0.9c0,0.6,0,1.2,0,1.7c0,0.6,0,1.2,0,1.9c0,0.3,0,0.6,0,1l-0.1,7.7
		c0,0.3,0.1,0.5,0.2,0.6l1.5,0.1l0.9,0l1,0c1.7,0,3.1-0.2,4-0.6c0.7-0.3,1.2-0.6,1.4-0.9c0.4-0.3,0.7-0.7,0.9-1s0.5-1,0.8-1.9h0.5
		c0.3,0,0.5,0,0.9,0.1v0.5c0,0.8-0.1,2.1-0.3,4.1c-0.1,0.8-0.1,1.2-0.2,1.4c-0.2,0-0.4,0.1-0.5,0.1h-0.6l-0.8,0
		c-0.1,0-0.7,0-1.9-0.1c-0.2,0-1.2,0-3.1-0.1s-3.6-0.1-5.4-0.1l-3.3,0.1c-1.3,0-2.4,0.1-3.5,0.2h-0.2c-0.1,0-0.2,0-0.3,0
		c0-0.1,0-0.2,0-0.3C50.3,131.7,50.4,131.3,50.4,131.1z"/>
	<path fill="currentColor" d="M88.3,121.8c0-1.3,0.3-2.7,0.8-4c0.4-1,0.9-1.9,1.6-2.7s1.5-1.5,2.5-2.2c1-0.6,2-1.1,3.1-1.4
		c1.1-0.3,2.2-0.4,3.5-0.4c2.2,0,4.1,0.4,5.8,1.3c1.6,0.8,2.9,2,3.8,3.4c1.2,1.9,1.8,3.8,1.8,5.9c0,3-1,5.7-3.1,7.8
		c-2,2.2-4.9,3.3-8.5,3.3c-0.9,0-1.8-0.1-2.5-0.2c-0.6-0.1-1.1-0.2-1.6-0.4c-0.8-0.3-1.3-0.4-1.4-0.5c-1.2-0.7-2.1-1.4-2.8-2
		c-0.7-0.7-1.3-1.5-1.8-2.4c-0.3-0.5-0.6-1.4-0.9-2.7C88.4,123.8,88.3,122.9,88.3,121.8z M99.1,112.7c-0.9,0-1.7,0.2-2.5,0.7
		s-1.2,0.9-1.6,1.4c-0.6,0.9-1,1.9-1.3,2.9s-0.4,2.3-0.4,3.9c0,0.9,0,1.6,0.1,2c0,0.1,0.1,0.3,0.1,0.7c0.1,0.8,0.2,1.4,0.3,1.7
		c0.5,1.4,0.8,2.2,1,2.5c0.3,0.5,0.8,1.1,1.4,1.6c0.3,0.3,0.8,0.5,1.4,0.8c0.6,0.2,1.2,0.3,1.8,0.3c1.1,0,2.2-0.3,3.2-0.8
		s1.8-1.5,2.4-2.8c0.6-1.3,0.9-3,0.9-5.1c0-0.9-0.1-2-0.2-3.5l-0.1-0.3c0-0.1-0.1-0.3-0.2-0.7c-0.4-1.8-1.1-3.1-2.3-4
		C102.2,113.2,100.8,112.7,99.1,112.7z"/>
	<path fill="currentColor" d="M148.7,111.9c0.1,0.3,0.4,1.2,0.8,2.8c0.2,0.7,0.3,1.4,0.3,2.2h-1.5c-1-1.5-2.1-2.5-3.2-3.2
		c-1.1-0.6-2.3-1-3.6-1c-1.7,0-3,0.7-4,2c-1.4,1.8-2.1,4.2-2.1,7.4c0,1.8,0.1,3.1,0.4,3.9c0.4,1.3,0.9,2.3,1.5,3.1
		c0.4,0.6,1,1.1,1.8,1.4c0.9,0.5,1.9,0.7,3,0.7c1.2,0,2.3-0.4,3.4-1.1c1.1-0.7,2.1-1.8,3.1-3.3c0.4-0.1,0.9-0.1,1.5-0.1
		c0,0.4-0.1,0.8-0.2,1.3c0,0.2-0.2,0.9-0.4,2l-0.1,0.5l-0.2,0.8c-0.6,0.5-1.6,0.9-2.7,1.1c-1.2,0.3-2.6,0.4-4.3,0.4
		c-1.3,0-2.5-0.1-3.7-0.4c-1.2-0.2-2.2-0.6-3-1.2c-1.2-0.8-2.2-1.6-2.9-2.5c-0.7-0.9-1.2-1.9-1.5-3c-0.3-1.1-0.5-2.3-0.5-3.6
		c0-3.2,1-5.9,3.1-7.9s4.8-3.1,8-3.1c1.3,0,2.6,0.1,3.7,0.2C146.6,111.4,147.7,111.6,148.7,111.9z"/>
	<path fill="currentColor" d="M168.4,131.5c1.1-0.6,2-1,2.9-1.2c0.2-0.1,0.4-0.3,0.4-0.5c0.1-0.2,0.1-1.1,0.1-2.5c0-0.2,0-0.6-0.1-1.2
		v-0.4l0-3.4l0-2.4l0-0.7v-0.6c0-0.2,0-0.4,0.1-0.7l-0.1-0.7l0-0.2c0-0.2,0-0.4,0-0.6c0-1.1-0.1-2-0.3-2.5c-0.4-0.3-1-0.6-1.9-0.8
		c-0.5-0.1-0.9-0.3-1.1-0.4l0.1-1c0.2,0,0.4,0,0.6,0c0.9,0,1.7,0,2.4,0.1c0.7,0.1,1.8,0.1,3.1,0.1l1.6-0.1c0.8,0,1.4,0,1.9-0.1
		c0.3,0,0.5,0,0.7,0c0.1,0,0.3,0,0.5,0c0,0.1,0,0.2,0,0.3c0,0.3,0,0.6,0,0.7c-0.7,0.2-1.3,0.4-1.9,0.5c-0.6,0.1-1,0.2-1.1,0.3
		c-0.1,0.1-0.2,0.3-0.2,0.6v1.3c0,0.2,0,0.5,0,0.9c0,0.6,0,1.1,0,1.3c0,0.2,0,0.5,0,1.1v1.2l0,1.2c0,0.1,0,0.1,0,0.2
		c0.8-0.7,1.8-1.7,3.1-3c0.6-0.6,1.1-1.1,1.4-1.5c0.1-0.1,0.9-0.9,2.3-2.4c0.4-0.6,0.7-1,0.7-1l-0.1-0.1c-0.7-0.1-1.2-0.2-1.5-0.2
		c-0.2,0-0.6-0.1-1.1-0.2c0-0.2,0-0.5,0-0.9l0-0.2h0.7c0.3,0,0.8,0,1.3,0.1c0.6,0,1,0.1,1.3,0.1l3.8-0.1c0.6-0.1,1.3-0.1,2-0.2
		l0,1.3c-0.2,0-0.5,0.1-1.1,0.2c-1.3,0.4-2.1,0.7-2.6,1c-0.4,0.2-0.9,0.5-1.3,0.9c-0.4,0.4-1.3,1.1-2.5,2.2
		c-1.6,1.5-2.6,2.5-2.9,2.8c0.2,0.2,0.4,0.5,0.7,0.8l0.5,0.5c0.1,0.1,0.2,0.2,0.4,0.4l3.4,4l2.8,3.5c0.3,0.4,0.5,0.7,0.7,0.8
		l0.3,0.3c0.2,0.2,0.3,0.4,0.4,0.4c0.1,0.1,0.3,0.1,0.7,0.2c0.2,0,0.6,0.2,1.4,0.6c0,0.2,0,0.3,0,0.5c0,0.1,0,0.3-0.1,0.6l-1.8,0
		c-0.2,0-0.5-0.1-1-0.1l-1.6-0.1l-0.3,0l-2.2,0c-0.2,0-0.8,0-1.8,0.1c-0.5,0-0.9,0.1-1,0.1c-0.1,0-0.2,0-0.4,0
		c-0.1-0.2-0.1-0.3-0.1-0.4c0-0.1,0-0.3,0.1-0.6c0.5-0.2,0.9-0.3,1.4-0.4c0.4-0.1,0.6-0.2,0.7-0.3c0.1-0.1,0.2-0.2,0.2-0.4
		c0-0.1,0-0.2,0-0.2c-0.1-0.2-0.3-0.5-0.5-0.8c-0.1-0.1-0.8-1-2.3-2.6l-4.1-4.6c0,0.4-0.1,0.8-0.1,1.3c0,0.7,0,1.3,0.1,1.7
		c0,0.1,0,0.8,0,2.1l0,1.5l0.1,1.6c0.3,0.3,0.8,0.5,1.6,0.7c0.4,0.1,0.9,0.3,1.2,0.5c0,0.2,0,0.4,0,0.5c0,0.1,0,0.2,0,0.4
		c-0.5,0-0.9,0-1.2,0c-0.3,0-0.5,0-0.8,0l-2.3-0.1c-0.3,0-0.6,0-0.9,0c-0.3,0-0.7,0-1.2,0l-2.8,0c-0.1,0-0.6,0-1.5,0L168.4,131.5z"
		/>
	<path fill="currentColor" d="M206.1,112.7l-0.1-1c0.1-0.1,0.2-0.1,0.3-0.1c0.9,0.1,1.8,0.1,2.7,0.1c0.4,0,0.6,0,0.7,0c0.4,0,0.8,0,1.3,0
		l2.1-0.1c0.1,0,0.1,0.1,0.1,0.2l-0.1,0.7c-0.2,0.1-0.4,0.2-0.6,0.3c-0.4,0.2-0.6,0.4-0.6,0.6c0,0.1,0.1,0.3,0.2,0.5
		c0.1,0.1,0.1,0.3,0.3,0.7c0.2,0.5,0.7,1.8,1.5,3.8l4.1,9.7c0.5-1,1.4-2.7,2.5-5.2l-2.3-5.7c-0.4-1.1-0.8-1.9-1.1-2.6
		c-0.1-0.2-0.2-0.4-0.3-0.6c-0.1-0.1-0.2-0.3-0.3-0.5c-0.1-0.2-0.3-0.4-0.5-0.5s-0.8-0.3-1.6-0.5l0.1-1c0.3,0,0.8,0,1.4,0
		c0.9,0.1,1.4,0.1,1.7,0.1l2.2,0l2.8-0.2c0.1,0,0.1,0,0.2,0l0,0.5v0.2c0,0.1,0,0.2-0.1,0.3c-0.2,0.1-0.5,0.1-0.9,0.1
		c-0.3,0-0.5,0.1-0.6,0.2c-0.1,0.1-0.2,0.2-0.2,0.3c0,0.3,0.1,0.7,0.3,1.2c0.1,0.2,0.2,0.5,0.4,0.9c0.5,1.4,0.9,2.4,1.2,3l1.1-2.3
		c0.5-1.1,0.8-1.9,1-2.4c0-0.1,0-0.2,0-0.3v-0.1c-0.1-0.1-0.2-0.2-0.4-0.3c-0.3-0.1-0.7-0.3-1.4-0.4c0-0.2,0-0.4,0-0.5
		c0-0.1,0-0.3,0-0.5c0.4,0,1.3,0,3,0.1c1,0,1.6,0,1.9,0c0.2,0,0.4,0,0.6,0c0.2,0,0.4,0,0.5,0l0,0.1l0,0.7l0,0.1
		c-1.2,0.3-1.8,0.6-2.1,0.7s-0.4,0.4-0.6,0.7c-0.5,0.9-1.5,2.9-3,5.9l0.1,0.1l1,2.4l1.7,4.1c0.2,0.4,0.3,0.7,0.4,0.9l2-5.3l2.8-7.2
		l0.4-1.4c0-0.1,0-0.2,0-0.3l0-0.3c-0.4-0.1-0.7-0.2-0.9-0.3c-0.2-0.1-0.4-0.1-0.6-0.2c0-0.4,0-0.6,0-0.7s0-0.2,0.1-0.3l0.3,0
		l2.4,0.1l1.6-0.1l0.3,0c0,0.2,0,0.4,0,0.5c0,0.2,0,0.4-0.1,0.5c-0.1,0.1-0.2,0.1-0.3,0.2c-0.4,0.2-0.7,0.4-0.9,0.6
		c-0.1,0.1-0.3,0.5-0.5,1.1c-0.9,2.5-1.9,4.9-2.9,7.3c-1,2.3-2.5,6.1-4.4,11.2l-1.6,0c-0.1-0.4-0.2-0.7-0.4-1
		c-0.3-0.7-0.5-1.1-0.5-1.3l-1.8-4.1c-0.3-0.7-0.5-1.2-0.7-1.5c0-0.1-0.1-0.1-0.1-0.2c0,0.1-0.6,1.1-1.7,3.2
		c-1.1,2.1-1.9,3.7-2.4,4.9l-1.6,0c-0.4-1.2-1.1-3-2.3-5.5l-5.2-12.2c-0.5-1.2-0.9-2-1.2-2.2c-0.1-0.1-0.2-0.2-0.5-0.3
		C206.4,112.9,206.3,112.8,206.1,112.7z"/>
	<path fill="currentColor" d="M252.3,121.8c0-1.3,0.3-2.7,0.8-4c0.4-1,0.9-1.9,1.6-2.7c0.7-0.8,1.5-1.5,2.5-2.2c1-0.6,2-1.1,3.1-1.4
		c1.1-0.3,2.2-0.4,3.5-0.4c2.2,0,4.1,0.4,5.8,1.3c1.6,0.8,2.9,2,3.8,3.4c1.2,1.9,1.8,3.8,1.8,5.9c0,3-1,5.7-3.1,7.8
		c-2,2.2-4.9,3.3-8.5,3.3c-0.9,0-1.8-0.1-2.5-0.2c-0.6-0.1-1.1-0.2-1.6-0.4c-0.8-0.3-1.3-0.4-1.4-0.5c-1.2-0.7-2.1-1.4-2.8-2
		s-1.3-1.5-1.8-2.4c-0.3-0.5-0.6-1.4-0.9-2.7C252.4,123.8,252.3,122.9,252.3,121.8z M263.2,112.7c-0.9,0-1.7,0.2-2.5,0.7
		s-1.2,0.9-1.6,1.4c-0.6,0.9-1,1.9-1.3,2.9s-0.4,2.3-0.4,3.9c0,0.9,0,1.6,0.1,2c0,0.1,0.1,0.3,0.1,0.7c0.1,0.8,0.2,1.4,0.3,1.7
		c0.5,1.4,0.8,2.2,1,2.5c0.3,0.5,0.8,1.1,1.4,1.6c0.3,0.3,0.8,0.5,1.4,0.8c0.6,0.2,1.2,0.3,1.8,0.3c1.1,0,2.2-0.3,3.2-0.8
		s1.8-1.5,2.4-2.8s0.9-3,0.9-5.1c0-0.9-0.1-2-0.2-3.5l-0.1-0.3c0-0.1-0.1-0.3-0.2-0.7c-0.4-1.8-1.1-3.1-2.3-4
		C266.2,113.2,264.8,112.7,263.2,112.7z"/>
	<path fill="currentColor" d="M294.4,131.5c0.3-0.2,0.7-0.3,1.2-0.3c0.5-0.1,1-0.2,1.5-0.3c0.1-0.2,0.1-0.4,0.1-0.5c0-0.2,0-0.7,0-1.5
		l0-3.6l0.1-1.9l0-1.5l0-0.9c0-1.2,0-2.3,0-3.3c0-2.2,0-3.7-0.1-4.3l-0.9-0.2c-0.9-0.1-1.4-0.1-1.7-0.2l0-1l0.1-0.2
		c0.5-0.1,1-0.1,1.5-0.1c0.2,0,0.7,0,1.5,0c0.8,0.1,1.2,0.1,1.2,0.1l0.8,0l2-0.1c1.2-0.1,2.6-0.2,3.9-0.2c2.2,0,3.9,0.6,5.2,1.7
		c1.3,1.1,1.9,2.4,1.9,3.9c0,1.1-0.3,2.1-1,3c-0.7,0.9-1.8,1.6-3.2,2c0.1,0.2,0.3,0.5,0.5,0.8c0.4,0.6,0.8,1.2,1.1,1.6l2.5,4.2
		c0.6,1.1,1.1,1.8,1.3,1.9c0.2,0.2,0.6,0.4,1.2,0.6c0.5,0.2,0.8,0.4,1.1,0.5c0.1,0.2,0.1,0.3,0.1,0.5c0,0.1,0,0.2,0,0.4h-0.4l-0.3,0
		l-0.8-0.1h-0.7c-0.3-0.1-0.8-0.1-1.3-0.1l-1.6,0c-0.1,0-0.5,0-1.1,0.1c-0.3,0-0.5,0.1-0.7,0.1l-0.5-1.1c-0.4-0.8-0.8-1.4-0.9-1.8
		c-0.5-1-1.3-2.7-2.4-5c-0.5-1.1-0.9-1.7-1.1-1.8c-0.3-0.2-0.9-0.3-1.6-0.3c-0.2,0-0.6,0-1.1,0c0,0.3,0,0.7,0,1.1l0.1,3.6l-0.1,3
		c0.3,0.2,0.7,0.3,1.2,0.4c0.8,0.2,1.5,0.4,2.1,0.6c0,0.5,0,0.9-0.1,1.2c-0.2,0-0.3,0-0.4,0l-0.7,0c-2.3-0.2-3.6-0.3-4.1-0.3
		c-0.3,0-0.5,0-0.6,0l-2.2,0.1c-0.7,0.1-1.3,0.1-1.8,0.1h-0.7c0-0.3,0-0.4,0-0.5C294.4,131.8,294.4,131.7,294.4,131.5z M301.6,121
		c0.5,0,0.9,0,1.1,0c1.8,0,3.1-0.3,3.8-1c0.8-0.7,1.1-1.5,1.1-2.6c0-0.7-0.1-1.3-0.3-1.9c-0.2-0.6-0.4-1-0.7-1.3
		c-0.4-0.4-0.9-0.7-1.5-1c-0.5-0.2-1.2-0.2-2.2-0.2c-0.5,0-0.9,0-1.3,0.1l0,0.3l0,2.2l0,1.3l0,1.8c0,0.5,0,1.1,0,1.9V121z"/>
	<path fill="currentColor" d="M333.1,131.5c1.1-0.6,2-1,2.9-1.2c0.2-0.1,0.4-0.3,0.4-0.5c0.1-0.2,0.1-1.1,0.1-2.5c0-0.2,0-0.6-0.1-1.2
		v-0.4l0-3.4l0-2.4l0-0.7v-0.6c0-0.2,0-0.4,0.1-0.7l-0.1-0.7l0-0.2c0-0.2,0-0.4,0-0.6c0-1.1-0.1-2-0.3-2.5c-0.4-0.3-1-0.6-1.9-0.8
		c-0.5-0.1-0.9-0.3-1.2-0.4l0.1-1c0.2,0,0.4,0,0.6,0c0.9,0,1.7,0,2.4,0.1c0.7,0.1,1.8,0.1,3.1,0.1l1.6-0.1c0.8,0,1.4,0,1.9-0.1
		c0.3,0,0.5,0,0.7,0c0.1,0,0.3,0,0.5,0c0,0.1,0,0.2,0,0.3c0,0.3,0,0.6,0,0.7c-0.7,0.2-1.3,0.4-1.9,0.5c-0.6,0.1-1,0.2-1.1,0.3
		c-0.1,0.1-0.2,0.3-0.2,0.6v1.3c0,0.2,0,0.5,0,0.9c0,0.6,0,1.1,0,1.3c0,0.2,0,0.5,0,1.1v1.2l0,1.2c0,0.1,0,0.1,0,0.2
		c0.8-0.7,1.8-1.7,3.1-3c0.6-0.6,1.1-1.1,1.4-1.5c0.1-0.1,0.9-0.9,2.3-2.4c0.4-0.6,0.7-1,0.7-1l-0.1-0.1c-0.7-0.1-1.2-0.2-1.5-0.2
		c-0.2,0-0.6-0.1-1.1-0.2c0-0.2,0-0.5,0-0.9l0-0.2h0.7c0.3,0,0.8,0,1.3,0.1c0.6,0,1,0.1,1.3,0.1l3.8-0.1c0.6-0.1,1.3-0.1,2-0.2
		l0,1.3c-0.2,0-0.5,0.1-1.1,0.2c-1.3,0.4-2.1,0.7-2.6,1c-0.4,0.2-0.9,0.5-1.3,0.9c-0.4,0.4-1.3,1.1-2.5,2.2
		c-1.6,1.5-2.6,2.5-2.9,2.8c0.2,0.2,0.4,0.5,0.7,0.8l0.5,0.5c0.1,0.1,0.2,0.2,0.4,0.4l3.4,4l2.8,3.5c0.3,0.4,0.5,0.7,0.7,0.8
		l0.3,0.3c0.2,0.2,0.3,0.4,0.4,0.4c0.1,0.1,0.3,0.1,0.7,0.2c0.2,0,0.6,0.2,1.4,0.6c0,0.2,0,0.3,0,0.5c0,0.1,0,0.3-0.1,0.6l-1.8,0
		c-0.2,0-0.5-0.1-1-0.1l-1.6-0.1l-0.3,0l-2.2,0c-0.2,0-0.8,0-1.8,0.1c-0.5,0-0.9,0.1-1,0.1c-0.1,0-0.2,0-0.4,0
		c-0.1-0.2-0.1-0.3-0.1-0.4c0-0.1,0-0.3,0.1-0.6c0.5-0.2,0.9-0.3,1.4-0.4c0.4-0.1,0.6-0.2,0.7-0.3c0.1-0.1,0.2-0.2,0.2-0.4
		c0-0.1,0-0.2,0-0.2c-0.1-0.2-0.3-0.5-0.5-0.8c-0.1-0.1-0.8-1-2.3-2.6l-4.1-4.6c0,0.4-0.1,0.8-0.1,1.3c0,0.7,0,1.3,0.1,1.7
		c0,0.1,0,0.8,0,2.1l0,1.5l0.1,1.6c0.3,0.3,0.8,0.5,1.6,0.7c0.4,0.1,0.9,0.3,1.2,0.5c0,0.2,0,0.4,0,0.5c0,0.1,0,0.2,0,0.4
		c-0.5,0-0.9,0-1.2,0c-0.3,0-0.5,0-0.8,0l-2.3-0.1c-0.3,0-0.6,0-0.9,0c-0.3,0-0.7,0-1.2,0l-2.8,0c-0.1,0-0.6,0-1.5,0L333.1,131.5z"
		/>
	<path fill="currentColor" d="M384.3,112c0.1,0.4,0.2,0.9,0.3,1.7c0.1,1.1,0.2,2,0.2,2.6c0,0.2,0,0.4-0.1,0.6l-0.2,0l-1.1-0.1l-0.2,0
		c-0.5-1.4-0.9-2.4-1.4-2.9c-0.8-0.9-1.8-1.3-2.9-1.3c-1,0-1.9,0.3-2.5,0.8s-0.9,1.2-0.9,2.1c0,0.7,0.3,1.4,0.9,2
		c0.6,0.6,1.9,1.2,3.8,1.8c0.6,0.2,1.4,0.5,2.4,0.9s1.6,0.9,2.1,1.4c0.6,0.7,1.1,1.3,1.3,1.9c0.2,0.6,0.4,1.4,0.4,2.3
		c0,1-0.2,2-0.6,3c-0.2,0.5-0.5,1-1,1.5c-0.3,0.3-0.8,0.7-1.5,1.1c-0.7,0.4-1.4,0.8-2.1,0.9s-1.6,0.3-2.8,0.3
		c-0.7,0-1.6-0.1-2.7-0.3l-1.9-0.6c-0.5-0.2-0.9-0.3-1-0.4c-0.1,0-0.1-0.1-0.1-0.3V131c0-0.1,0-0.9-0.1-2.2c0-0.7,0-1.2,0-1.5v-0.6
		l1.5,0c0.5,1.2,0.8,1.9,1,2.2c0.3,0.6,0.7,1,1.1,1.3c0.4,0.3,0.9,0.6,1.4,0.8c0.6,0.2,1.2,0.3,1.8,0.3c0.6,0,1.2-0.1,1.9-0.4
		c0.7-0.2,1.2-0.7,1.7-1.2c0.4-0.6,0.6-1.2,0.6-1.8c0-0.8-0.4-1.5-1.1-2.2c-0.4-0.4-1.7-1-3.6-1.7s-3.3-1.3-4.1-1.9
		c-0.8-0.5-1.4-1.3-1.8-2.2c-0.4-0.9-0.7-1.8-0.7-2.7c0-1.7,0.6-3.2,1.8-4.4s3-1.8,5.4-1.8c0.5,0,1.3,0.1,2.3,0.3
		C382.5,111.5,383.3,111.7,384.3,112z"/>
</g>
</svg>
