<svg version="1.1" xmlns="http://www.w3.org/2000/svg" xmlns:xlink="http://www.w3.org/1999/xlink" x="0px" y="0px"
	 viewBox="0 0 24 24" enable-background="new 0 0 24 24" xml:space="preserve">
	<path fill="currentColor" d="M20.9,14.1c0,0-0.4,0.3-1,0.8c-0.8,0.6-1.6,1.2-2.3,1.9c-1.1,1-2.3,2-3.4,3.1c-1.3,1.1-2.5,1.9-3.5,2.4c-1-1.1-2-2.2-3-3.5
		c-1-1.2-1.6-1.9-1.7-2c-1-1-2-1.8-3.2-2.5c-1.1-0.7-1.7-1-1.6-0.9c-0.5-0.5-0.2-1.1,0.6-2c0.3-0.3,0.5-0.5,0.7-0.6l7.1-6.7
		c1.4-1.4,2.6-2.2,3.6-2.3c2.1,2.6,3.5,4.3,4.2,5c0.8,0.8,1.9,1.7,3.1,2.4c0.9,0.6,1.8,1.2,2.7,1.8C22.8,11.9,22,12.9,20.9,14.1z
		 M12.2,18.5c0.5-1.3,1.5-2.7,3.1-4.2c0.7-0.7,1.6-1.5,2.8-2.5c0-0.2-0.1-0.5-0.3-0.6c-0.3-0.3-0.8-0.6-1.6-1.1
		c-0.8-0.4-1.3-0.7-1.5-1c-0.3-0.3-0.7-0.9-1.2-1.8c-0.5-0.9-0.9-1.4-1.1-1.7L11.8,5c-0.4,0.2-0.7,0.4-0.8,0.5
		c-0.1,0.1-0.4,0.6-0.7,1.4C9.9,7.8,9.5,8.4,9.1,8.8c-0.4,0.4-1.9,1.4-4.5,3.1l0.7,0.7c0.3,0.3,0.9,0.7,1.9,1.2s1.5,0.8,1.7,1
		c0.3,0.3,0.7,0.9,1.2,1.8c0.5,0.9,0.9,1.5,1.3,1.8C11.6,18.6,11.9,18.7,12.2,18.5z M13.4,13.5c-0.4,0.4-1,0.6-1.6,0.6
		c-0.7,0-1.2-0.3-1.7-0.8c-1-1-0.9-2,0.3-3.2c1-1,2-0.9,3,0.1c0.5,0.5,0.7,1,0.7,1.7C14,12.5,13.8,13.1,13.4,13.5z"/>
</svg>
