<svg version="1.1" xmlns="http://www.w3.org/2000/svg" xmlns:xlink="http://www.w3.org/1999/xlink" x="0px" y="0px"
	 viewBox="0 0 24 24" enable-background="new 0 0 24 24" xml:space="preserve">
	<path fill="currentColor" d="M24,19.1c0,1.3-0.5,2.4-1.6,3.4c-1.1,1-2.4,1.5-3.8,1.5c-2.1,0-4.1-0.9-5.9-2.7c-0.5-0.5-1.2-1.3-2.2-2.6
		c-1-1.3-1.8-2.3-2.5-3c-1-1.1-2.2-1.8-3.4-2.3c-1.1-0.4-2.4-0.7-3.9-0.9c-0.4,0-0.6-0.2-0.6-0.4c0-0.2,0.3-0.3,0.8-0.3
		c1.6,0,2.9-0.2,3.9-0.7c1.3-0.6,2.6-1.7,3.8-3.3c0.2-0.2,0.8-1.1,2-2.8c0.8-1.1,1.4-1.9,2-2.5C14.1,0.8,16,0,18,0
		c1.6,0,3,0.5,4.1,1.4c1.1,1,1.6,2.2,1.6,3.6c0,1-0.4,1.9-1.1,2.6c-0.7,0.7-1.6,1.1-2.6,1.1c-0.5,0-1-0.2-1.5-0.6
		c-0.4-0.4-0.7-0.9-0.7-1.5s0.1-1.1,0.4-1.4s0.7-0.5,1.1-0.5c0.3,0,0.6,0.2,0.9,0.7c0.3,0.4,0.6,0.7,0.7,0.7c0.3,0,0.5-0.1,0.7-0.4
		c0.2-0.3,0.3-0.6,0.3-1c0-0.9-0.2-1.7-0.7-2.2c-0.5-0.5-1.1-0.8-2-0.8c-0.7,0-1.4,0.4-2.1,1.1c-0.6,0.8-1.2,1.6-1.9,2.4
		c-0.9,1.1-2.2,2.2-3.9,3.4c-1.1,0.7-3,2-5.8,3.7l-0.2,0.2c0,0,0.1,0.1,0.2,0.2c2.4,1.3,3.8,2,4.2,2.2c1.4,0.8,2.5,1.5,3.3,2.1
		c1.3,1,2.5,2.3,3.7,3.8c1,1.3,1.9,2,2.6,2c0.8,0,1.5-0.3,2.1-0.9c0.6-0.6,0.9-1.3,0.9-2.1c0-0.3-0.1-0.6-0.2-0.9s-0.3-0.4-0.4-0.4
		c-0.1,0-0.4,0.2-0.9,0.5c-0.5,0.4-0.8,0.5-1,0.5c-0.4,0-0.8-0.2-1.1-0.5c-0.3-0.4-0.5-0.8-0.5-1.4c0-0.6,0.2-1.2,0.7-1.7
		s1-0.7,1.6-0.7c1,0,1.9,0.4,2.5,1.1C23.7,16.8,24,17.8,24,19.1z"/>
</svg>
