<svg version="1.1" xmlns="http://www.w3.org/2000/svg" xmlns:xlink="http://www.w3.org/1999/xlink" x="0px" y="0px"
	 viewBox="0 0 24 24" enable-background="new 0 0 24 24" xml:space="preserve">
	<path fill="currentColor" d="M24,11.9c0,0.2-0.3,0.3-0.8,0.3c-1.5,0-2.7,0.2-3.7,0.6c-1.3,0.5-2.5,1.5-3.7,3c-0.3,0.4-1,1.4-2.2,2.9
		c-0.9,1.2-1.6,2.1-2.2,2.7C10.7,22.4,9.8,23,9,23.4C8.2,23.8,7.2,24,6,24c-1.6,0-3-0.5-4-1.4c-1.1-1-1.6-2.1-1.6-3.5
		c0-1.1,0.4-2,1.1-2.7c0.7-0.7,1.6-1.1,2.6-1.1c0.5,0,1,0.2,1.5,0.6c0.4,0.4,0.7,0.9,0.7,1.5c0,0.6-0.1,1.1-0.4,1.4
		s-0.7,0.5-1.1,0.5c-0.3,0-0.6-0.2-0.9-0.7c-0.3-0.4-0.6-0.7-0.7-0.7c-0.3,0-0.5,0.1-0.7,0.4C2.1,18.8,2,19.2,2,19.6
		c0,0.9,0.2,1.6,0.7,2.2c0.5,0.5,1.1,0.8,1.9,0.8c0.7,0,1.5-0.4,2.2-1.1c0.6-0.8,1.2-1.6,1.9-2.4c0.9-1.1,2.2-2.2,4-3.4
		c1.2-0.8,3.1-2.1,5.8-3.7l0.2-0.2c-0.1,0-0.1-0.1-0.2-0.2c-2.4-1.3-4-2.1-4.6-2.4c-1.4-0.8-2.5-1.5-3.2-2.1
		C9.4,5.9,8.3,4.7,7.3,3.4s-1.8-2-2.6-2c-0.8,0-1.5,0.3-2.1,0.9C2,3,1.7,3.7,1.7,4.5c0,0.3,0.1,0.6,0.2,0.9c0.2,0.3,0.3,0.4,0.4,0.4
		c0.1,0,0.4-0.2,0.9-0.5C3.7,5,4,4.8,4.2,4.8C4.6,4.8,5,5,5.3,5.3c0.3,0.4,0.5,0.8,0.5,1.4c0,0.6-0.2,1.2-0.7,1.7
		C4.5,8.9,4,9.1,3.4,9.1c-1,0-1.9-0.4-2.5-1.1C0.3,7.2,0,6.2,0,4.9c0-1.3,0.5-2.4,1.6-3.4C2.7,0.5,4,0,5.5,0c2.1,0,4.1,0.9,5.9,2.7
		c0.4,0.4,1.2,1.3,2.1,2.6c1,1.3,1.8,2.3,2.6,3c1.8,1.9,4.3,2.9,7.3,3.2C23.8,11.5,24,11.7,24,11.9z"/>
</svg>
